<svg xmlns="http://www.w3.org/2000/svg" viewBox="0 0 1200 850"><rect width="1200" height="850" fill="#ffffff"/><rect x="0" y="0" width="1200" height="120" fill="#fff7ed"/><rect x="52" y="38" width="18" height="52" rx="9" fill="#ea580c"/><text x="92" y="72" font-family="Arial, sans-serif" font-size="34" font-weight="800" fill="#1f2933" text-anchor="start">時間軸學習單 - 基礎填空版</text><text x="92" y="104" font-family="Arial, sans-serif" font-size="19" font-weight="600" fill="#64748b" text-anchor="start">適合新概念導入與快速練習</text><rect x="930" y="34" width="218" height="58" rx="12" fill="#fff" stroke="#d7dee8" stroke-width="2"/><text x="956" y="72" font-family="Arial, sans-serif" font-size="18" font-weight="700" fill="#475569" text-anchor="start">姓名：          日期：</text><path d="M120 390 L1080 390" stroke="#ea580c" stroke-width="8" stroke-linecap="round" fill="none"/><circle cx="150" cy="390" r="22" fill="#22c55e" stroke="#22c55e" stroke-width="0"/><rect x="68" y="250" width="164" height="90" rx="12" fill="#fff" stroke="#cbd5e1" stroke-width="3"/><text x="150" y="304" font-family="Arial, sans-serif" font-size="22" font-weight="800" fill="#ea580c" text-anchor="middle">事件 1</text><circle cx="340" cy="390" r="22" fill="#22c55e" stroke="#22c55e" stroke-width="0"/><rect x="258" y="455" width="164" height="90" rx="12" fill="#fff" stroke="#cbd5e1" stroke-width="3"/><text x="340" y="509" font-family="Arial, sans-serif" font-size="22" font-weight="800" fill="#ea580c" text-anchor="middle">事件 2</text><circle cx="530" cy="390" r="22" fill="#22c55e" stroke="#22c55e" stroke-width="0"/><rect x="448" y="250" width="164" height="90" rx="12" fill="#fff" stroke="#cbd5e1" stroke-width="3"/><text x="530" y="304" font-family="Arial, sans-serif" font-size="22" font-weight="800" fill="#ea580c" text-anchor="middle">事件 3</text><circle cx="720" cy="390" r="22" fill="#22c55e" stroke="#22c55e" stroke-width="0"/><rect x="638" y="455" width="164" height="90" rx="12" fill="#fff" stroke="#cbd5e1" stroke-width="3"/><text x="720" y="509" font-family="Arial, sans-serif" font-size="22" font-weight="800" fill="#ea580c" text-anchor="middle">事件 4</text><circle cx="910" cy="390" r="22" fill="#22c55e" stroke="#22c55e" stroke-width="0"/><rect x="828" y="250" width="164" height="90" rx="12" fill="#fff" stroke="#cbd5e1" stroke-width="3"/><text x="910" y="304" font-family="Arial, sans-serif" font-size="22" font-weight="800" fill="#ea580c" text-anchor="middle">事件 5</text><circle cx="1060" cy="390" r="22" fill="#22c55e" stroke="#22c55e" stroke-width="0"/><rect x="978" y="455" width="164" height="90" rx="12" fill="#fff" stroke="#cbd5e1" stroke-width="3"/><text x="1060" y="509" font-family="Arial, sans-serif" font-size="22" font-weight="800" fill="#ea580c" text-anchor="middle">事件 6</text><rect x="52" y="744" width="1096" height="68" rx="12" fill="#f8fafc" stroke="#d7dee8" stroke-width="2"/><text x="78" y="785" font-family="Arial, sans-serif" font-size="22" font-weight="800" fill="#ea580c" text-anchor="start">我的一句總結：</text><path d="M245 780 L1090 780" stroke="#94a3b8" stroke-width="3" stroke-linecap="round" fill="none"/></svg>