<svg xmlns="http://www.w3.org/2000/svg" viewBox="0 0 1200 850"><rect width="1200" height="850" fill="#ffffff"/><rect x="0" y="0" width="1200" height="120" fill="#fff7ed"/><rect x="52" y="38" width="18" height="52" rx="9" fill="#ea580c"/><text x="92" y="72" font-family="Arial, sans-serif" font-size="34" font-weight="800" fill="#1f2933" text-anchor="start">T 字圖學習單 - 基礎填空版</text><text x="92" y="104" font-family="Arial, sans-serif" font-size="19" font-weight="600" fill="#64748b" text-anchor="start">適合新概念導入與快速練習</text><rect x="930" y="34" width="218" height="58" rx="12" fill="#fff" stroke="#d7dee8" stroke-width="2"/><text x="956" y="72" font-family="Arial, sans-serif" font-size="18" font-weight="700" fill="#475569" text-anchor="start">姓名：          日期：</text><rect x="100" y="200" width="1000" height="500" rx="12" fill="#fff" stroke="#cbd5e1" stroke-width="4"/><path d="M600 200 L600 700" stroke="#ea580c" stroke-width="5" stroke-linecap="round" fill="none"/><rect x="100" y="200" width="1000" height="72" rx="12" fill="#fff7ed"/><text x="350" y="248" font-family="Arial, sans-serif" font-size="26" font-weight="800" fill="#ea580c" text-anchor="middle">左欄</text><text x="850" y="248" font-family="Arial, sans-serif" font-size="26" font-weight="800" fill="#ea580c" text-anchor="middle">右欄</text><path d="M130 340 L570 340" stroke="#cbd5e1" stroke-width="3" stroke-linecap="round" fill="none"/><path d="M630 340 L1070 340" stroke="#cbd5e1" stroke-width="3" stroke-linecap="round" fill="none"/><path d="M130 420 L570 420" stroke="#cbd5e1" stroke-width="3" stroke-linecap="round" fill="none"/><path d="M630 420 L1070 420" stroke="#cbd5e1" stroke-width="3" stroke-linecap="round" fill="none"/><path d="M130 500 L570 500" stroke="#cbd5e1" stroke-width="3" stroke-linecap="round" fill="none"/><path d="M630 500 L1070 500" stroke="#cbd5e1" stroke-width="3" stroke-linecap="round" fill="none"/><path d="M130 580 L570 580" stroke="#cbd5e1" stroke-width="3" stroke-linecap="round" fill="none"/><path d="M630 580 L1070 580" stroke="#cbd5e1" stroke-width="3" stroke-linecap="round" fill="none"/><path d="M130 660 L570 660" stroke="#cbd5e1" stroke-width="3" stroke-linecap="round" fill="none"/><path d="M630 660 L1070 660" stroke="#cbd5e1" stroke-width="3" stroke-linecap="round" fill="none"/><rect x="52" y="744" width="1096" height="68" rx="12" fill="#f8fafc" stroke="#d7dee8" stroke-width="2"/><text x="78" y="785" font-family="Arial, sans-serif" font-size="22" font-weight="800" fill="#ea580c" text-anchor="start">我的一句總結：</text><path d="M245 780 L1090 780" stroke="#94a3b8" stroke-width="3" stroke-linecap="round" fill="none"/></svg>