<svg xmlns="http://www.w3.org/2000/svg" viewBox="0 0 1200 850"><rect width="1200" height="850" fill="#ffffff"/><rect x="0" y="0" width="1200" height="120" fill="#eef4ff"/><rect x="52" y="38" width="18" height="52" rx="9" fill="#246bfe"/><text x="92" y="72" font-family="Arial, sans-serif" font-size="34" font-weight="800" fill="#1f2933" text-anchor="start">KWL 表學習單 - 基礎填空版</text><text x="92" y="104" font-family="Arial, sans-serif" font-size="19" font-weight="600" fill="#64748b" text-anchor="start">適合新概念導入與快速練習</text><rect x="930" y="34" width="218" height="58" rx="12" fill="#fff" stroke="#d7dee8" stroke-width="2"/><text x="956" y="72" font-family="Arial, sans-serif" font-size="18" font-weight="700" fill="#475569" text-anchor="start">姓名：          日期：</text><rect x="90" y="210" width="230" height="470" rx="12" fill="#fff" stroke="#cbd5e1" stroke-width="3"/><rect x="90" y="210" width="230" height="62" rx="12" fill="#246bfe"/><text x="205" y="250" font-family="Arial, sans-serif" font-size="24" font-weight="800" fill="#fff" text-anchor="middle">K 已知</text><path d="M118 320 L292 320" stroke="#cbd5e1" stroke-width="3" stroke-linecap="round" fill="none"/><path d="M118 390 L292 390" stroke="#cbd5e1" stroke-width="3" stroke-linecap="round" fill="none"/><path d="M118 460 L292 460" stroke="#cbd5e1" stroke-width="3" stroke-linecap="round" fill="none"/><path d="M118 530 L292 530" stroke="#cbd5e1" stroke-width="3" stroke-linecap="round" fill="none"/><path d="M118 600 L292 600" stroke="#cbd5e1" stroke-width="3" stroke-linecap="round" fill="none"/><rect x="360" y="210" width="230" height="470" rx="12" fill="#fff" stroke="#cbd5e1" stroke-width="3"/><rect x="360" y="210" width="230" height="62" rx="12" fill="#246bfe"/><text x="475" y="250" font-family="Arial, sans-serif" font-size="24" font-weight="800" fill="#fff" text-anchor="middle">W 想知道</text><path d="M388 320 L562 320" stroke="#cbd5e1" stroke-width="3" stroke-linecap="round" fill="none"/><path d="M388 390 L562 390" stroke="#cbd5e1" stroke-width="3" stroke-linecap="round" fill="none"/><path d="M388 460 L562 460" stroke="#cbd5e1" stroke-width="3" stroke-linecap="round" fill="none"/><path d="M388 530 L562 530" stroke="#cbd5e1" stroke-width="3" stroke-linecap="round" fill="none"/><path d="M388 600 L562 600" stroke="#cbd5e1" stroke-width="3" stroke-linecap="round" fill="none"/><rect x="630" y="210" width="230" height="470" rx="12" fill="#fff" stroke="#cbd5e1" stroke-width="3"/><rect x="630" y="210" width="230" height="62" rx="12" fill="#246bfe"/><text x="745" y="250" font-family="Arial, sans-serif" font-size="24" font-weight="800" fill="#fff" text-anchor="middle">L 學到</text><path d="M658 320 L832 320" stroke="#cbd5e1" stroke-width="3" stroke-linecap="round" fill="none"/><path d="M658 390 L832 390" stroke="#cbd5e1" stroke-width="3" stroke-linecap="round" fill="none"/><path d="M658 460 L832 460" stroke="#cbd5e1" stroke-width="3" stroke-linecap="round" fill="none"/><path d="M658 530 L832 530" stroke="#cbd5e1" stroke-width="3" stroke-linecap="round" fill="none"/><path d="M658 600 L832 600" stroke="#cbd5e1" stroke-width="3" stroke-linecap="round" fill="none"/><rect x="900" y="210" width="230" height="470" rx="12" fill="#fff" stroke="#cbd5e1" stroke-width="3"/><rect x="900" y="210" width="230" height="62" rx="12" fill="#246bfe"/><text x="1015" y="250" font-family="Arial, sans-serif" font-size="24" font-weight="800" fill="#fff" text-anchor="middle">Next 下一步</text><path d="M928 320 L1102 320" stroke="#cbd5e1" stroke-width="3" stroke-linecap="round" fill="none"/><path d="M928 390 L1102 390" stroke="#cbd5e1" stroke-width="3" stroke-linecap="round" fill="none"/><path d="M928 460 L1102 460" stroke="#cbd5e1" stroke-width="3" stroke-linecap="round" fill="none"/><path d="M928 530 L1102 530" stroke="#cbd5e1" stroke-width="3" stroke-linecap="round" fill="none"/><path d="M928 600 L1102 600" stroke="#cbd5e1" stroke-width="3" stroke-linecap="round" fill="none"/><rect x="52" y="744" width="1096" height="68" rx="12" fill="#f8fafc" stroke="#d7dee8" stroke-width="2"/><text x="78" y="785" font-family="Arial, sans-serif" font-size="22" font-weight="800" fill="#246bfe" text-anchor="start">我的一句總結：</text><path d="M245 780 L1090 780" stroke="#94a3b8" stroke-width="3" stroke-linecap="round" fill="none"/></svg>