<svg xmlns="http://www.w3.org/2000/svg" viewBox="0 0 1200 850"><rect width="1200" height="850" fill="#ffffff"/><rect x="0" y="0" width="1200" height="120" fill="#ecfdf5"/><rect x="52" y="38" width="18" height="52" rx="9" fill="#0f766e"/><text x="92" y="72" font-family="Arial, sans-serif" font-size="34" font-weight="800" fill="#1f2933" text-anchor="start">魚骨圖學習單 - 基礎填空版</text><text x="92" y="104" font-family="Arial, sans-serif" font-size="19" font-weight="600" fill="#64748b" text-anchor="start">適合新概念導入與快速練習</text><rect x="930" y="34" width="218" height="58" rx="12" fill="#fff" stroke="#d7dee8" stroke-width="2"/><text x="956" y="72" font-family="Arial, sans-serif" font-size="18" font-weight="700" fill="#475569" text-anchor="start">姓名：          日期：</text><path d="M210 430 L960 430" stroke="#0f766e" stroke-width="8" stroke-linecap="round" fill="none"/><path d="M960 430 l-58 -34 v68 z" fill="#0f766e"/><rect x="940" y="384" width="190" height="92" rx="16" fill="#ecfdf5" stroke="#0f766e" stroke-width="3"/><text x="1035" y="438" font-family="Arial, sans-serif" font-size="24" font-weight="800" fill="#0f766e" text-anchor="middle">核心問題</text><path d="M320 430 L242 290" stroke="#2563eb" stroke-width="5" stroke-linecap="round" fill="none"/><path d="M320 430 L242 570" stroke="#2563eb" stroke-width="5" stroke-linecap="round" fill="none"/><rect x="170" y="235" width="160" height="56" rx="12" fill="#fff" stroke="#cbd5e1" stroke-width="3"/><rect x="170" y="584" width="160" height="56" rx="12" fill="#fff" stroke="#cbd5e1" stroke-width="3"/><text x="250" y="272" font-family="Arial, sans-serif" font-size="22" font-weight="800" fill="#1f2933" text-anchor="start">人員</text><text x="250" y="622" font-family="Arial, sans-serif" font-size="22" font-weight="800" fill="#1f2933" text-anchor="start">證據</text><path d="M470 430 L392 290" stroke="#2563eb" stroke-width="5" stroke-linecap="round" fill="none"/><path d="M470 430 L392 570" stroke="#2563eb" stroke-width="5" stroke-linecap="round" fill="none"/><rect x="320" y="235" width="160" height="56" rx="12" fill="#fff" stroke="#cbd5e1" stroke-width="3"/><rect x="320" y="584" width="160" height="56" rx="12" fill="#fff" stroke="#cbd5e1" stroke-width="3"/><text x="400" y="272" font-family="Arial, sans-serif" font-size="22" font-weight="800" fill="#1f2933" text-anchor="start">方法</text><text x="400" y="622" font-family="Arial, sans-serif" font-size="22" font-weight="800" fill="#1f2933" text-anchor="start">證據</text><path d="M620 430 L542 290" stroke="#2563eb" stroke-width="5" stroke-linecap="round" fill="none"/><path d="M620 430 L542 570" stroke="#2563eb" stroke-width="5" stroke-linecap="round" fill="none"/><rect x="470" y="235" width="160" height="56" rx="12" fill="#fff" stroke="#cbd5e1" stroke-width="3"/><rect x="470" y="584" width="160" height="56" rx="12" fill="#fff" stroke="#cbd5e1" stroke-width="3"/><text x="550" y="272" font-family="Arial, sans-serif" font-size="22" font-weight="800" fill="#1f2933" text-anchor="start">材料</text><text x="550" y="622" font-family="Arial, sans-serif" font-size="22" font-weight="800" fill="#1f2933" text-anchor="start">證據</text><path d="M770 430 L692 290" stroke="#2563eb" stroke-width="5" stroke-linecap="round" fill="none"/><path d="M770 430 L692 570" stroke="#2563eb" stroke-width="5" stroke-linecap="round" fill="none"/><rect x="620" y="235" width="160" height="56" rx="12" fill="#fff" stroke="#cbd5e1" stroke-width="3"/><rect x="620" y="584" width="160" height="56" rx="12" fill="#fff" stroke="#cbd5e1" stroke-width="3"/><text x="700" y="272" font-family="Arial, sans-serif" font-size="22" font-weight="800" fill="#1f2933" text-anchor="start">環境</text><text x="700" y="622" font-family="Arial, sans-serif" font-size="22" font-weight="800" fill="#1f2933" text-anchor="start">證據</text><rect x="52" y="744" width="1096" height="68" rx="12" fill="#f8fafc" stroke="#d7dee8" stroke-width="2"/><text x="78" y="785" font-family="Arial, sans-serif" font-size="22" font-weight="800" fill="#0f766e" text-anchor="start">我的一句總結：</text><path d="M245 780 L1090 780" stroke="#94a3b8" stroke-width="3" stroke-linecap="round" fill="none"/></svg>