<svg xmlns="http://www.w3.org/2000/svg" viewBox="0 0 1200 850"><rect width="1200" height="850" fill="#ffffff"/><rect x="0" y="0" width="1200" height="120" fill="#f5f3ff"/><rect x="52" y="38" width="18" height="52" rx="9" fill="#8b5cf6"/><text x="92" y="72" font-family="Arial, sans-serif" font-size="34" font-weight="800" fill="#1f2933" text-anchor="start">循環圖學習單 - 基礎填空版</text><text x="92" y="104" font-family="Arial, sans-serif" font-size="19" font-weight="600" fill="#64748b" text-anchor="start">適合新概念導入與快速練習</text><rect x="930" y="34" width="218" height="58" rx="12" fill="#fff" stroke="#d7dee8" stroke-width="2"/><text x="956" y="72" font-family="Arial, sans-serif" font-size="18" font-weight="700" fill="#475569" text-anchor="start">姓名：          日期：</text><path d="M600 215 L820 340" stroke="#0f766e" stroke-width="5" stroke-linecap="round" fill="none"/><path d="M820 340 L760 585" stroke="#0f766e" stroke-width="5" stroke-linecap="round" fill="none"/><path d="M760 585 L440 585" stroke="#0f766e" stroke-width="5" stroke-linecap="round" fill="none"/><path d="M440 585 L380 340" stroke="#0f766e" stroke-width="5" stroke-linecap="round" fill="none"/><path d="M380 340 L600 215" stroke="#0f766e" stroke-width="5" stroke-linecap="round" fill="none"/><circle cx="600" cy="215" r="70" fill="#fff" stroke="#8b5cf6" stroke-width="4"/><text x="600" y="223" font-family="Arial, sans-serif" font-size="24" font-weight="800" fill="#8b5cf6" text-anchor="middle">觀察</text><circle cx="820" cy="340" r="70" fill="#fff" stroke="#8b5cf6" stroke-width="4"/><text x="820" y="348" font-family="Arial, sans-serif" font-size="24" font-weight="800" fill="#8b5cf6" text-anchor="middle">整理</text><circle cx="760" cy="585" r="70" fill="#fff" stroke="#8b5cf6" stroke-width="4"/><text x="760" y="593" font-family="Arial, sans-serif" font-size="24" font-weight="800" fill="#8b5cf6" text-anchor="middle">表達</text><circle cx="440" cy="585" r="70" fill="#fff" stroke="#8b5cf6" stroke-width="4"/><text x="440" y="593" font-family="Arial, sans-serif" font-size="24" font-weight="800" fill="#8b5cf6" text-anchor="middle">修正</text><circle cx="380" cy="340" r="70" fill="#fff" stroke="#8b5cf6" stroke-width="4"/><text x="380" y="348" font-family="Arial, sans-serif" font-size="24" font-weight="800" fill="#8b5cf6" text-anchor="middle">提問</text><circle cx="600" cy="425" r="92" fill="#f5f3ff" stroke="#8b5cf6" stroke-width="3"/><text x="600" y="434" font-family="Arial, sans-serif" font-size="30" font-weight="800" fill="#8b5cf6" text-anchor="middle">循環</text><rect x="52" y="744" width="1096" height="68" rx="12" fill="#f8fafc" stroke="#d7dee8" stroke-width="2"/><text x="78" y="785" font-family="Arial, sans-serif" font-size="22" font-weight="800" fill="#8b5cf6" text-anchor="start">我的一句總結：</text><path d="M245 780 L1090 780" stroke="#94a3b8" stroke-width="3" stroke-linecap="round" fill="none"/></svg>