<svg xmlns="http://www.w3.org/2000/svg" viewBox="0 0 1200 850"><rect width="1200" height="850" fill="#ffffff"/><rect x="0" y="0" width="1200" height="120" fill="#eef4ff"/><rect x="52" y="38" width="18" height="52" rx="9" fill="#246bfe"/><text x="92" y="72" font-family="Arial, sans-serif" font-size="34" font-weight="800" fill="#1f2933" text-anchor="start">心智圖學習單 - 基礎填空版</text><text x="92" y="104" font-family="Arial, sans-serif" font-size="19" font-weight="600" fill="#64748b" text-anchor="start">適合新概念導入與快速練習</text><rect x="930" y="34" width="218" height="58" rx="12" fill="#fff" stroke="#d7dee8" stroke-width="2"/><text x="956" y="72" font-family="Arial, sans-serif" font-size="18" font-weight="700" fill="#475569" text-anchor="start">姓名：          日期：</text><circle cx="600" cy="390" r="82" fill="#246bfe" stroke="#246bfe" stroke-width="0"/><text x="600" y="400" font-family="Arial, sans-serif" font-size="32" font-weight="800" fill="#fff" text-anchor="middle">主題</text><path d="M600 390 L300 260" stroke="#246bfe" stroke-width="5" stroke-linecap="round" fill="none"/><rect x="218" y="224" width="164" height="72" rx="18" fill="#fff" stroke="#cbd5e1" stroke-width="3"/><text x="300" y="268" font-family="Arial, sans-serif" font-size="24" font-weight="800" fill="#0f766e" text-anchor="middle">原因</text><path d="M600 390 L600 210" stroke="#246bfe" stroke-width="5" stroke-linecap="round" fill="none"/><rect x="518" y="174" width="164" height="72" rx="18" fill="#fff" stroke="#cbd5e1" stroke-width="3"/><text x="600" y="218" font-family="Arial, sans-serif" font-size="24" font-weight="800" fill="#0f766e" text-anchor="middle">概念</text><path d="M600 390 L900 260" stroke="#246bfe" stroke-width="5" stroke-linecap="round" fill="none"/><rect x="818" y="224" width="164" height="72" rx="18" fill="#fff" stroke="#cbd5e1" stroke-width="3"/><text x="900" y="268" font-family="Arial, sans-serif" font-size="24" font-weight="800" fill="#0f766e" text-anchor="middle">例子</text><path d="M600 390 L330 540" stroke="#246bfe" stroke-width="5" stroke-linecap="round" fill="none"/><rect x="248" y="504" width="164" height="72" rx="18" fill="#fff" stroke="#cbd5e1" stroke-width="3"/><text x="330" y="548" font-family="Arial, sans-serif" font-size="24" font-weight="800" fill="#0f766e" text-anchor="middle">問題</text><path d="M600 390 L600 600" stroke="#246bfe" stroke-width="5" stroke-linecap="round" fill="none"/><rect x="518" y="564" width="164" height="72" rx="18" fill="#fff" stroke="#cbd5e1" stroke-width="3"/><text x="600" y="608" font-family="Arial, sans-serif" font-size="24" font-weight="800" fill="#0f766e" text-anchor="middle">證據</text><path d="M600 390 L870 540" stroke="#246bfe" stroke-width="5" stroke-linecap="round" fill="none"/><rect x="788" y="504" width="164" height="72" rx="18" fill="#fff" stroke="#cbd5e1" stroke-width="3"/><text x="870" y="548" font-family="Arial, sans-serif" font-size="24" font-weight="800" fill="#0f766e" text-anchor="middle">應用</text><rect x="52" y="744" width="1096" height="68" rx="12" fill="#f8fafc" stroke="#d7dee8" stroke-width="2"/><text x="78" y="785" font-family="Arial, sans-serif" font-size="22" font-weight="800" fill="#246bfe" text-anchor="start">我的一句總結：</text><path d="M245 780 L1090 780" stroke="#94a3b8" stroke-width="3" stroke-linecap="round" fill="none"/></svg>