<svg xmlns="http://www.w3.org/2000/svg" viewBox="0 0 1200 850"><rect width="1200" height="850" fill="#ffffff"/><rect x="0" y="0" width="1200" height="120" fill="#ecfdf5"/><rect x="52" y="38" width="18" height="52" rx="9" fill="#0f766e"/><text x="92" y="72" font-family="Arial, sans-serif" font-size="34" font-weight="800" fill="#1f2933" text-anchor="start">概念圖學習單 - 基礎填空版</text><text x="92" y="104" font-family="Arial, sans-serif" font-size="19" font-weight="600" fill="#64748b" text-anchor="start">適合新概念導入與快速練習</text><rect x="930" y="34" width="218" height="58" rx="12" fill="#fff" stroke="#d7dee8" stroke-width="2"/><text x="956" y="72" font-family="Arial, sans-serif" font-size="18" font-weight="700" fill="#475569" text-anchor="start">姓名：          日期：</text><path d="M600 210 L360 390" stroke="#2563eb" stroke-width="5" stroke-linecap="round" fill="none"/><path d="M600 210 L600 390" stroke="#2563eb" stroke-width="5" stroke-linecap="round" fill="none"/><path d="M600 210 L840 390" stroke="#2563eb" stroke-width="5" stroke-linecap="round" fill="none"/><path d="M600 390 L460 570" stroke="#2563eb" stroke-width="5" stroke-linecap="round" fill="none"/><path d="M600 390 L740 570" stroke="#2563eb" stroke-width="5" stroke-linecap="round" fill="none"/><rect x="505" y="168" width="190" height="84" rx="16" fill="#ecfdf5" stroke="#0f766e" stroke-width="3"/><text x="600" y="218" font-family="Arial, sans-serif" font-size="23" font-weight="800" fill="#0f766e" text-anchor="middle">核心概念</text><rect x="265" y="348" width="190" height="84" rx="16" fill="#fff" stroke="#cbd5e1" stroke-width="3"/><text x="360" y="398" font-family="Arial, sans-serif" font-size="23" font-weight="800" fill="#1f2933" text-anchor="middle">上位概念</text><rect x="505" y="348" width="190" height="84" rx="16" fill="#fff" stroke="#cbd5e1" stroke-width="3"/><text x="600" y="398" font-family="Arial, sans-serif" font-size="23" font-weight="800" fill="#1f2933" text-anchor="middle">關係詞</text><rect x="745" y="348" width="190" height="84" rx="16" fill="#fff" stroke="#cbd5e1" stroke-width="3"/><text x="840" y="398" font-family="Arial, sans-serif" font-size="23" font-weight="800" fill="#1f2933" text-anchor="middle">例子</text><rect x="365" y="528" width="190" height="84" rx="16" fill="#fff" stroke="#cbd5e1" stroke-width="3"/><text x="460" y="578" font-family="Arial, sans-serif" font-size="23" font-weight="800" fill="#1f2933" text-anchor="middle">細節</text><rect x="645" y="528" width="190" height="84" rx="16" fill="#fff" stroke="#cbd5e1" stroke-width="3"/><text x="740" y="578" font-family="Arial, sans-serif" font-size="23" font-weight="800" fill="#1f2933" text-anchor="middle">應用</text><rect x="52" y="744" width="1096" height="68" rx="12" fill="#f8fafc" stroke="#d7dee8" stroke-width="2"/><text x="78" y="785" font-family="Arial, sans-serif" font-size="22" font-weight="800" fill="#0f766e" text-anchor="start">我的一句總結：</text><path d="M245 780 L1090 780" stroke="#94a3b8" stroke-width="3" stroke-linecap="round" fill="none"/></svg>