<svg xmlns="http://www.w3.org/2000/svg" viewBox="0 0 1200 850"><rect width="1200" height="850" fill="#ffffff"/><rect x="0" y="0" width="1200" height="120" fill="#f5f3ff"/><rect x="52" y="38" width="18" height="52" rx="9" fill="#8b5cf6"/><text x="92" y="72" font-family="Arial, sans-serif" font-size="34" font-weight="800" fill="#1f2933" text-anchor="start">流程圖學習單 - 基礎填空版</text><text x="92" y="104" font-family="Arial, sans-serif" font-size="19" font-weight="600" fill="#64748b" text-anchor="start">適合新概念導入與快速練習</text><rect x="930" y="34" width="218" height="58" rx="12" fill="#fff" stroke="#d7dee8" stroke-width="2"/><text x="956" y="72" font-family="Arial, sans-serif" font-size="18" font-weight="700" fill="#475569" text-anchor="start">姓名：          日期：</text><rect x="135" y="260" width="180" height="110" rx="16" fill="#fff" stroke="#cbd5e1" stroke-width="3"/><text x="225" y="324" font-family="Arial, sans-serif" font-size="26" font-weight="800" fill="#8b5cf6" text-anchor="middle">步驟 1</text><path d="M325 315 L367 315" stroke="#0f766e" stroke-width="6" stroke-linecap="round" fill="none"/><path d="M367 315 l-18 -13 v26 z" fill="#0f766e"/><rect x="375" y="260" width="180" height="110" rx="16" fill="#fff" stroke="#cbd5e1" stroke-width="3"/><text x="465" y="324" font-family="Arial, sans-serif" font-size="26" font-weight="800" fill="#8b5cf6" text-anchor="middle">步驟 2</text><path d="M565 315 L607 315" stroke="#0f766e" stroke-width="6" stroke-linecap="round" fill="none"/><path d="M607 315 l-18 -13 v26 z" fill="#0f766e"/><rect x="615" y="260" width="180" height="110" rx="16" fill="#fff" stroke="#cbd5e1" stroke-width="3"/><text x="705" y="324" font-family="Arial, sans-serif" font-size="26" font-weight="800" fill="#8b5cf6" text-anchor="middle">步驟 3</text><path d="M805 315 L847 315" stroke="#0f766e" stroke-width="6" stroke-linecap="round" fill="none"/><path d="M847 315 l-18 -13 v26 z" fill="#0f766e"/><rect x="855" y="260" width="180" height="110" rx="16" fill="#fff" stroke="#cbd5e1" stroke-width="3"/><text x="945" y="324" font-family="Arial, sans-serif" font-size="26" font-weight="800" fill="#8b5cf6" text-anchor="middle">步驟 4</text><rect x="430" y="475" width="340" height="92" rx="16" fill="#f5f3ff" stroke="#8b5cf6" stroke-width="3"/><text x="600" y="530" font-family="Arial, sans-serif" font-size="28" font-weight="800" fill="#8b5cf6" text-anchor="middle">判斷 / 修正</text><rect x="52" y="744" width="1096" height="68" rx="12" fill="#f8fafc" stroke="#d7dee8" stroke-width="2"/><text x="78" y="785" font-family="Arial, sans-serif" font-size="22" font-weight="800" fill="#8b5cf6" text-anchor="start">我的一句總結：</text><path d="M245 780 L1090 780" stroke="#94a3b8" stroke-width="3" stroke-linecap="round" fill="none"/></svg>